<?xml version="1.0" encoding="utf-8"?>
<!-- Generator: Adobe Illustrator 22.0.0, SVG Export Plug-In . SVG Version: 6.00 Build 0)  -->
<svg version="1.1" id="Layer_1" xmlns="http://www.w3.org/2000/svg" xmlns:xlink="http://www.w3.org/1999/xlink" x="0px" y="0px"
	 viewBox="0 0 500 500" style="enable-background:new 0 0 500 500;" xml:space="preserve">
<style type="text/css">
	.st0{fill:#ECF4F7;}
	.st1{fill:#FDDF7F;}
	.st2{fill:#AAB1BA;}
	.st3{fill:#1C1D21;}
</style>
<g>
	<path class="st0" d="M364.303,495H135.697c-18.112,0-32.794-14.682-32.794-32.794v-4.708c0-18.112,14.682-32.794,32.794-32.794
		h228.605c18.112,0,32.794,14.682,32.794,32.794v4.708C397.097,480.318,382.414,495,364.303,495z"/>
</g>
<g>
	<path class="st1" d="M442.203,336.163c-0.447-6.535-6.172-11.466-12.722-11.466h-81.922c-5.245,0-9.497-4.252-9.497-9.497v-30.783
		c0-19.378-11.817-35.993-28.636-43.04c-7.1,6.282-15.283,11.477-24.348,15.258l-1.302,0.543
		c-21.614,9.016-45.931,9.019-67.545,0.002c-0.433-0.181-0.868-0.362-1.304-0.544c-9.066-3.781-17.25-8.977-24.35-15.259
		c-16.82,7.047-28.637,23.662-28.637,43.04V315.2c0,5.245-4.252,9.497-9.497,9.497H70.519c-6.551,0-12.275,4.93-12.722,11.466
		c-0.49,7.166,5.148,13.146,12.21,13.199l40.862,0.148c11.828,0.043,23.546,2.263,34.57,6.55l43.01,16.726v51.917h19.315V495h84.471
		v-70.297h19.317v-51.917l43.01-16.726c11.024-4.287,22.742-6.507,34.57-6.55l40.862-0.148
		C437.055,349.309,442.693,343.329,442.203,336.163z"/>
</g>
<g>
	<path class="st2" d="M249.324,59.537c-49.09,0.365-88.356,41.056-88.356,90.147v25.984c0,35.404,21.283,67.339,53.957,80.969
		c0.436,0.182,0.871,0.363,1.304,0.544c21.614,9.016,45.931,9.014,67.545-0.002l1.302-0.543
		c32.675-13.63,53.954-45.564,53.954-80.967v-27.102C339.031,99.171,298.804,59.17,249.324,59.537z"/>
</g>
<g>
	<path class="st1" d="M233.34,184.146l-27.386,7.093c11.15,11.507,26.757,18.67,44.046,18.67s32.896-7.163,44.046-18.67
		c-8.994-2.33-19.118-4.952-27.393-7.095C255.726,181.314,244.266,181.316,233.34,184.146z"/>
</g>
<g>
	<path class="st1" d="M266.653,160.249c12.761,3.305,29.919,7.749,40.538,10.5c2.671-6.882,4.152-14.357,4.152-22.182
		c0-33.879-27.464-61.343-61.343-61.343s-61.343,27.464-61.343,61.343c0,7.825,1.481,15.301,4.152,22.182l40.53-10.498
		C244.266,157.421,255.726,157.419,266.653,160.249z"/>
</g>
<path class="st3" d="M234.025,15.975c0-2.762,2.239-5,5-5H245V5c0-2.762,2.239-5,5-5c2.762,0,5,2.238,5,5v5.975h5.975
	c2.762,0,5,2.238,5,5s-2.238,5-5,5H255v5.975c0,2.762-2.238,5-5,5c-2.761,0-5-2.238-5-5v-5.975h-5.975
	C236.264,20.975,234.025,18.736,234.025,15.975z M352.939,92.224h5.975v5.975c0,2.762,2.238,5,5,5s5-2.238,5-5v-5.975h5.975
	c2.762,0,5-2.238,5-5s-2.238-5-5-5h-5.975v-5.975c0-2.762-2.238-5-5-5s-5,2.238-5,5v5.975h-5.975c-2.762,0-5,2.238-5,5
	S350.178,92.224,352.939,92.224z M125.111,92.224h5.974v5.975c0,2.762,2.239,5,5,5s5-2.238,5-5v-5.975h5.975c2.761,0,5-2.238,5-5
	s-2.239-5-5-5h-5.975v-5.975c0-2.762-2.239-5-5-5s-5,2.238-5,5v5.975h-5.974c-2.761,0-5,2.238-5,5S122.35,92.224,125.111,92.224z
	 M45.979,490h-7.035c-2.761,0-5,2.238-5,5s2.239,5,5,5h7.035c2.761,0,5-2.238,5-5S48.741,490,45.979,490z M441.433,495
	c0,2.762-2.238,5-5,5h-72.13h-21.087H156.784h-21.086h-72.13c-2.761,0-5-2.238-5-5s2.239-5,5-5h46.553
	c-7.505-6.912-12.217-16.811-12.217-27.794v-4.708c0-20.84,16.954-37.794,37.794-37.794h228.605
	c20.84,0,37.794,16.954,37.794,37.794v4.708c0,10.983-4.712,20.882-12.217,27.794h46.553C439.194,490,441.433,492.238,441.433,495z
	 M156.784,490h45.98v-46.243c0-2.762,2.239-5,5-5s5,2.238,5,5v11.095h74.471v-25.147H135.697c-15.326,0-27.794,12.469-27.794,27.794
	v4.708c0,15.325,12.468,27.794,27.794,27.794h21.087V490z M364.303,490c15.325,0,27.794-12.469,27.794-27.794v-4.708
	c0-15.325-12.469-27.794-27.794-27.794h-67.067v45.724c0,2.762-2.238,5-5,5s-5-2.238-5-5v-10.576h-74.471V490h130.452H364.303z
	 M461.056,490h-7.035c-2.762,0-5,2.238-5,5s2.238,5,5,5h7.035c2.762,0,5-2.238,5-5S463.817,490,461.056,490z M447.19,335.822
	c0.331,4.835-1.295,9.448-4.578,12.989c-3.236,3.492-7.822,5.515-12.582,5.551l-40.881,0.147
	c-11.257,0.041-22.284,2.131-32.775,6.211l-39.822,15.485v29.941c0,2.762-2.238,5-5,5s-5-2.238-5-5v-33.361
	c0-0.004,0.001-0.009,0.001-0.013v-78.101c0-2.762,2.238-5,5-5s5,2.238,5,5v70.803l36.196-14.076
	c11.641-4.526,23.875-6.846,36.364-6.891l40.862-0.147c2.023-0.016,3.913-0.85,5.303-2.349c1.389-1.498,2.076-3.454,1.936-5.51
	c-0.261-3.816-3.657-6.807-7.733-6.807h-81.922c-7.994,0-14.497-6.503-14.497-14.497v-30.783c0-15.813-8.854-30.078-22.798-37.146
	c-5.197,4.268-10.901,8.007-17.051,11.116c-0.239,0.121-0.483,0.231-0.724,0.35c-0.773,0.382-1.545,0.764-2.332,1.127
	c-1.042,0.48-2.094,0.943-3.156,1.386l-1.302,0.543c-10.285,4.291-21.256,6.616-32.291,7.017c-1.137,0.041-2.274,0.083-3.411,0.083
	c-12.177,0-24.35-2.365-35.693-7.097l-1.311-0.547c-1.06-0.442-2.11-0.904-3.151-1.384c-0.844-0.389-1.674-0.797-2.501-1.209
	c-0.183-0.091-0.369-0.175-0.551-0.267c-6.152-3.109-11.857-6.849-17.055-11.118c-13.944,7.068-22.798,21.334-22.798,37.146V315.2
	c0,7.994-6.503,14.497-14.497,14.497H70.519c-4.076,0-7.472,2.99-7.733,6.807c-0.141,2.056,0.547,4.012,1.935,5.51
	c1.39,1.499,3.281,2.333,5.323,2.349l40.843,0.147c12.489,0.045,24.724,2.364,36.364,6.891l36.198,14.077v-70.804
	c0-2.762,2.239-5,5-5s5,2.238,5,5v78.113v2.061v31.301c0,2.762-2.239,5-5,5s-5-2.238-5-5v-29.941l-39.822-15.485
	c-10.492-4.08-21.52-6.17-32.776-6.211l-40.862-0.147c-4.779-0.036-9.365-2.059-12.602-5.551c-3.283-3.541-4.909-8.154-4.578-12.989
	c0.618-9.042,8.397-16.125,17.71-16.125h8.625c-0.963-2.127-1.512-4.479-1.512-6.962c0-9.353,7.609-16.961,16.961-16.961
	s16.961,7.608,16.961,16.961c0,2.482-0.549,4.835-1.512,6.962h42.399c2.479,0,4.497-2.018,4.497-4.497V284.42
	c0-18.36,9.628-35.037,25.05-44.28c-16.394-16.937-26.02-39.854-26.02-64.469v-25.983c0-52.082,41.862-94.765,93.318-95.147
	c0.239-0.002,0.48-0.003,0.719-0.003c24.991,0,48.487,9.676,66.236,27.294c17.921,17.788,27.79,41.489,27.79,66.738v27.102
	c0,24.614-9.625,47.531-26.02,64.468c15.422,9.243,25.05,25.92,25.05,44.281V315.2c0,2.479,2.018,4.497,4.497,4.497h42.398
	c-0.963-2.127-1.512-4.479-1.512-6.962c0-9.353,7.608-16.961,16.961-16.961s16.962,7.608,16.962,16.961
	c0,2.482-0.549,4.835-1.512,6.962h8.624C438.794,319.697,446.573,326.78,447.19,335.822z M398.445,312.735
	c0,3.838,3.123,6.961,6.961,6.961c3.839,0,6.962-3.123,6.962-6.961s-3.123-6.961-6.962-6.961
	C401.568,305.774,398.445,308.897,398.445,312.735z M87.632,312.735c0,3.838,3.123,6.961,6.961,6.961s6.961-3.123,6.961-6.961
	s-3.123-6.961-6.961-6.961S87.632,308.897,87.632,312.735z M165.968,175.668c0,24.052,10.303,46.29,27.561,61.689
	c0.122,0.089,0.246,0.174,0.36,0.275c3.376,2.988,6.975,5.68,10.765,8.065c0.073,0.046,0.146,0.093,0.219,0.138
	c0.817,0.51,1.645,1.002,2.48,1.484c0.171,0.098,0.339,0.199,0.511,0.296c0.75,0.426,1.511,0.834,2.275,1.237
	c0.236,0.124,0.468,0.253,0.705,0.375c0.742,0.382,1.493,0.745,2.248,1.104c0.249,0.118,0.492,0.244,0.742,0.36
	c0.996,0.462,2,0.907,3.016,1.331l1.312,0.548c20.231,8.438,43.448,8.438,63.688-0.006l1.302-0.543
	c1.017-0.424,2.022-0.87,3.019-1.333c0.242-0.112,0.478-0.234,0.719-0.348c0.763-0.364,1.524-0.732,2.274-1.118
	c0.229-0.118,0.453-0.242,0.681-0.362c0.773-0.407,1.542-0.82,2.301-1.251c0.165-0.094,0.327-0.19,0.491-0.285
	c0.841-0.485,1.675-0.98,2.497-1.494c0.07-0.043,0.139-0.088,0.208-0.131c3.792-2.385,7.392-5.078,10.769-8.066
	c0.113-0.1,0.236-0.184,0.356-0.273c17.259-15.399,27.564-37.638,27.564-61.693v-27.102c0-22.563-8.82-43.744-24.835-59.641
	c-15.86-15.744-36.86-24.392-59.193-24.392c-0.215,0-0.428,0.001-0.643,0.003c-45.983,0.342-83.393,38.539-83.393,85.147
	L165.968,175.668L165.968,175.668z M298.859,189.887c0.481,1.714,0.016,3.554-1.223,4.832c-12.617,13.02-29.534,20.19-47.637,20.19
	s-35.021-7.171-47.637-20.19c-1.238-1.278-1.704-3.118-1.223-4.832c0.481-1.713,1.837-3.042,3.56-3.487l27.386-7.093l0,0
	c11.721-3.036,24.107-3.036,35.82-0.002l27.394,7.094C297.022,186.845,298.378,188.174,298.859,189.887z M283.696,193.724
	l-18.297-4.738c-10.074-2.609-20.727-2.608-30.806,0.001l0,0l-18.29,4.737c9.673,7.264,21.362,11.186,33.697,11.186
	S274.022,200.987,283.696,193.724z M188.148,172.559c-2.98-7.678-4.491-15.75-4.491-23.992c0-36.581,29.761-66.343,66.343-66.343
	c36.581,0,66.343,29.762,66.343,66.343c0,8.241-1.511,16.313-4.491,23.992c-0.761,1.96-2.64,3.191-4.659,3.191
	c-0.416,0-0.837-0.052-1.256-0.161l-40.538-10.5c-10.073-2.607-20.726-2.608-30.805,0.002l-40.53,10.498
	C191.609,176.226,189.066,174.924,188.148,172.559z M193.657,148.566c0,5.516,0.797,10.941,2.373,16.184l36.056-9.339
	c0.47-0.122,0.942-0.23,1.414-0.342v-19.371c0-0.062-0.05-0.112-0.112-0.112h-10.115c-2.761,0-5-2.238-5-5s2.239-5,5-5h10.115
	c5.576,0,10.112,4.536,10.112,10.112v17.734c4.324-0.394,8.678-0.394,13,0v-17.734c0-5.576,4.536-10.112,10.112-10.112h10.114
	c2.762,0,5,2.238,5,5c0,2.762-2.238,5-5,5h-10.114c-0.062,0-0.112,0.051-0.112,0.112v19.371c0.469,0.111,0.939,0.219,1.406,0.34
	l36.063,9.341c1.576-5.243,2.373-10.668,2.373-16.184c0-31.067-25.275-56.343-56.343-56.343S193.657,117.499,193.657,148.566z
	 M250,282.468c-2.761,0-5,2.238-5,5v15.25c0,5.812-2.518,11.329-6.908,15.137c-3.644,3.16-8.306,4.9-13.129,4.9h-11.2
	c-2.761,0-5,2.238-5,5s2.239,5,5,5h11.2c7.23,0,14.22-2.608,19.682-7.346c0.122-0.106,0.236-0.218,0.355-0.326v33.3h-10.891
	c-2.761,0-5,2.238-5,5s2.239,5,5,5H245v27.964c0,2.762,2.239,5,5,5c2.762,0,5-2.238,5-5v-27.964h10.892c2.762,0,5-2.238,5-5
	s-2.238-5-5-5H255v-33.3c0.12,0.107,0.234,0.22,0.355,0.326c5.461,4.737,12.451,7.346,19.682,7.346h11.199c2.762,0,5-2.238,5-5
	s-2.238-5-5-5h-11.199c-4.823,0-9.486-1.74-13.129-4.9c-4.391-3.808-6.908-9.325-6.908-15.137v-15.25
	C255,284.706,252.762,282.468,250,282.468z"/>
</svg>
